<?xml version="1.0" encoding="utf-8"?>
<!-- Generator: Adobe Illustrator 16.0.4, SVG Export Plug-In . SVG Version: 6.00 Build 0)  -->
<!DOCTYPE svg PUBLIC "-//W3C//DTD SVG 1.1//EN" "http://www.w3.org/Graphics/SVG/1.1/DTD/svg11.dtd">
<svg version="1.1" id="Layer_1" xmlns="http://www.w3.org/2000/svg" xmlns:xlink="http://www.w3.org/1999/xlink" x="0px" y="0px"
	 width="500px" height="500px" viewBox="0 0 500 500" enable-background="new 0 0 500 500" xml:space="preserve">
<g>
	<path fill="#26A9E0" d="M495.502,250.438c0,135.371-109.745,245.116-245.117,245.116S5.269,385.81,5.269,250.438
		c0-135.377,109.744-245.116,245.116-245.116S495.502,115.062,495.502,250.438z"/>
	<path fill="#FFFFFF" d="M409.372,116.944c0,0-2.566,20.994-28.932,37.889c0,0,31.744-4.609,38.913-9.728
		c0,0-15.358,24.064-36.094,36.611c0,0,12.028,129.789-113.924,189.185c0,0-89.095,49.66-189.954-13.826
		c0,0,59.898,5.889,101.627-28.161c0,0-49.408-2.043-63.485-48.382c0,0,15.105,3.324,29.184-2.564c0,0-52.737-9.981-53.758-68.606
		c0,0,16.895,9.728,29.694,8.448c0,0-48.892-35.589-19.708-93.439c0,0,52.22,68.348,142.337,72.704c0,0-12.029-67.584,54.268-83.201
		c0,0,39.687-9.728,64.518,19.456C364.058,133.329,389.149,131.539,409.372,116.944z"/>
</g>
</svg>
